<svg id="Layer_1" data-name="Layer 1" xmlns="http://www.w3.org/2000/svg" viewBox="0 0 570 570"><title>stars</title><path d="M902,670c-.41-.53-.85-1-1.22-1.58-5.27-7.78-11.6-11.88-20.93-6.26-1,.61-2.67,1.41-3.67.1s.15-2.69.94-3.6c6.12-7.12,5.85-13.77-1.07-20.2-.89-.83-2.15-2.1-1.32-3.46s2.43-.34,3.69-.33a1.32,1.32,0,0,1,.49.07c8.47,3.38,14.61,1,18.46-7.32.5-1.1,1.31-2.68,2.87-2.36s1.16,2.15,1.59,3.33a2.38,2.38,0,0,1,.14,1c-.69,8.61,3.37,13.23,11.83,14.42,1.48.21,3.86.43,4,2.35s-2.27,2.31-3.71,2.67c-8.4,2.07-11.66,7.23-10.11,15.7a30.36,30.36,0,0,1,0,5.48Z" transform="translate(-399 -100)"/><path d="M666,100a7,7,0,0,1,.29,1.47c-.4,10,3.2,16.91,14.17,18,.92.1,2.17.35,2.27,1.58s-1.27,1.32-2.05,1.84a3,3,0,0,1-.91.41c-8.68,2.33-12.73,7.59-10.92,16.8.26,1.34.39,3.34-1.32,3.92-1.42.47-2.45-1.05-3.11-2.09-5-7.81-11.35-9.78-19.59-5.13-1.06.6-2.77,1.34-3.75.29-1.34-1.44.49-2.65,1-4a1.59,1.59,0,0,1,.26-.43c5.3-6.39,5.82-12.49-.8-18.45-1.12-1-2.78-2.61-1.88-4.28,1-1.89,3.17-.79,4.52-.26,8.17,3.21,14,.9,17.66-7A15.39,15.39,0,0,1,664,100Z" transform="translate(-399 -100)"/><path d="M761,100c.34,1.63,1.11,3.3,1,4.87-.85,8.74,3.62,12.74,11.71,13.95,1.52.22,4,.33,4.15,2.1.21,2.29-2.66,1.93-4,3a1.24,1.24,0,0,1-.45.21c-7.42,1.92-10.8,6.45-9.33,14.23a13.18,13.18,0,0,1,0,3.49c-.25,2.83-1.52,3.18-3.43,1.22a65.24,65.24,0,0,1-5.33-5.95c-2.32-3.07-4.92-4.13-8.59-2.38a43,43,0,0,1-6.64,2.19c-1.22.35-2.67,1.43-3.74.36s.25-2.45.8-3.55a54.14,54.14,0,0,1,3.67-6.53c2-2.91,1.67-5.27-.42-8.09s-6.92-6.3-5.23-8.83c2-3,7,0,10.53.8s5.67,0,7.54-3S757,102.69,759,100Z" transform="translate(-399 -100)"/><path d="M399,634a10.31,10.31,0,0,1,1.47.28c9.1,3.05,17.18,3.24,21.56-7.47.4-1,1.28-2.32,2.6-1.71a3,3,0,0,1,1.19,2.53c-.94,10.44,4.46,15.41,14.17,16.85.93.14,2.14.51,2.06,1.76s-1.22,1.65-2.12,1.83c-11,2.21-13.38,9.61-11.83,19.45A12.21,12.21,0,0,1,428,670h-2c-.6-.79-1.26-1.54-1.8-2.37-4.76-7.42-10.63-10.91-19.24-5.82-1.25.74-3.31,1.81-4.49.07-.92-1.35.35-3,1.27-4,6.08-7,4.74-13.32-1.49-19.33A15.83,15.83,0,0,1,399,637Z" transform="translate(-399 -100)"/><path d="M399,539a77.66,77.66,0,0,1,9.31,1.59c4.43,1.3,7.45.38,10-3.69,1.65-2.62,3.18-7.43,6.33-6.6,2.71.72,1.63,5.67,1.81,8.7.29,5,2.71,7.25,7.35,8.46,2.85.75,7.62.58,7.85,3.73.17,2.43-4.6,3.37-7.29,4.11-6.9,1.89-6.39,7-6.31,12.24,0,2.17,1.3,5.37-1.17,6.34-2.21.87-3.55-2.17-4.6-3.82-4.4-7-10.07-6.83-16.66-3.74-1.54.72-3.79,2.14-5.07.53s.78-3.29,1.58-4.85c5.6-11,6.78-6.94-3.15-20Z" transform="translate(-399 -100)"/><path d="M969,407c-3.46,1.63-6.86,3.42-10.41,4.83-3.25,1.28-4.72,3.31-4.42,6.84a56.73,56.73,0,0,1,0,7.49c0,1.23.61,2.93-1,3.52-1.28.47-2.2-.82-2.76-1.72-5.29-8.56-12.26-10.1-20.92-5.26-.93.52-2.31,1.11-3.13-.17-.59-.93.07-2.07.69-2.75,7.37-8.09,5.37-15.38-1.74-22.33a9,9,0,0,1-1.07-2.17c3.38-1.3,6.43.1,9.21.87,5.09,1.39,8.66.35,11.35-4.33,1.45-2.52,3.54-4.67,5.6-7.31,2.23,3.17,1.91,6.27,2,9.14.21,5.17,2.27,8.25,7.63,9.24,3.07.56,6,2,8.94,3.11Z" transform="translate(-399 -100)"/><path d="M399,349c3.57-.43,6.94.7,10.28,1.56,3.72.95,6.24.2,8.39-3.19,1.81-2.86,3.67-8,6.53-7.35,3.47.76,2.18,6.06,2.29,9.27.21,5.86,4.2,6.77,8.39,8.11,2.46.8,6.58.78,6.83,3.13.27,2.63-3.77,3.39-6.11,4.05-6.32,1.77-8.5,5.67-7.48,11.85a9.43,9.43,0,0,1,0,2.49c-.16,1.59.77,3.87-.84,4.61-2.09,1-3.27-1.43-4.11-2.77-4.61-7.33-10.49-8.69-18-4.65-1.32.71-3.35,2-4.62.62s.73-2.94,1.21-4.44a5.77,5.77,0,0,1,.47-.88c5.32-10.07,5.18-10.92-3.22-19.41Z" transform="translate(-399 -100)"/><path d="M399,444c3.89-.17,7.57,1,11.28,1.87,3.06.69,4.9-.13,6.77-2.58,2.26-3,4.15-8.79,7.11-8.13,3.72.83,2.21,6.66,2.47,10.18.4,5.32,4.17,5.64,7.61,7.1,2.63,1.12,7.21.49,7.45,3.55.18,2.32-4.27,3.17-6.8,4-5.5,1.87-7.67,5.26-6.79,10.93a28.78,28.78,0,0,1,0,5.49c0,1,.1,2.16-1.09,2.54s-1.9-.57-2.4-1.37c-5.31-8.6-12.29-10.78-21.28-5.76-.84.46-2,.82-2.81,0s0-1.85.34-2.73a16.55,16.55,0,0,1,.92-1.77c5.86-10.77,5.86-10.77-2.77-20.35Z" transform="translate(-399 -100)"/><path d="M856,100c1.52,3.28,1.22,6.87,1.59,10.32s1.82,5.59,5.48,6.61c3.41.95,9.25,1.23,9.44,4,.22,3.37-5.5,3.84-8.69,5.13-4.67,1.88-4.75,5.23-4.76,9.23,0,2.89,1.55,7.25-1,8.35-3,1.28-4.73-3.05-6.27-5.28-3.83-5.55-8.28-4.67-13.44-2.63-2.21.88-5.37,3.07-6.86,1.36-1.71-2,1.18-4.53,2.53-6.37,4-5.39,4.07-10.18-.94-14.9a16.47,16.47,0,0,1-2.64-3.63,3.24,3.24,0,0,1-.61-2.26c.39-1.23,1.62-.85,2.57-.68a83.71,83.71,0,0,1,8.81,1.76c3,.9,5.07.16,6.76-2.49,1.88-3,4-5.72,6.06-8.56Z" transform="translate(-399 -100)"/><path d="M969,312a23.11,23.11,0,0,1-3.2,1.39c-8.75,2.41-13.71,7.31-11.66,17.12.25,1.17.52,2.91-.92,3.6s-2.59-.72-3.2-1.72c-5-8.14-11.56-9.37-19.7-5.06-1.1.58-2.78,1.24-3.68-.06s.37-2.49.94-3.67a1.64,1.64,0,0,1,.24-.43c5.76-6.66,5.45-12.91-1-19-1.06-1-2.95-2.49-1.77-4.16.89-1.25,2.93-.51,4.23,0,8.35,3.28,14.35,1,18.26-7.12.59-1.23,1.39-2.71,3.35-2.93,2.06,3.59,1.36,7.75,2,11.6.51,2.85,1.58,4.41,4.36,5.25,4,1.19,7.83,2.75,11.74,4.15Z" transform="translate(-399 -100)"/><path d="M399,254c3.24-.65,6.32.44,9.3,1.26,4.56,1.26,7.59,0,10.07-4,1.62-2.61,3.35-7.24,5.85-6.75,3.26.66,2.25,5.49,2.15,8.32-.26,7.13,4.65,8.18,9.69,9.68,2.13.63,5.66.54,5.8,3s-3.33,3-5.42,3.54c-6.73,1.86-9.59,5.91-8.33,12.84a15.09,15.09,0,0,1,0,3.49c-.06,1.14.13,2.54-1.25,3a2.34,2.34,0,0,1-2.49-1.35c-5.22-8.5-12.15-10.25-20.87-5.54-.81.44-2,.88-2.81,0s-.05-1.84.27-2.73a1.37,1.37,0,0,1,.23-.45c7.41-8.22,4.36-15.43-2.18-22.29Z" transform="translate(-399 -100)"/><path d="M521,670c-2.11-4.09-5.84-6.77-8.82-10.11-1.38-1.55-3-.95-4.64-.45-3.18,1-6.32,2.1-9.53,3-2.35.66-3.29-.26-2.13-2.56a50.8,50.8,0,0,1,3.68-6.52c2.44-3.48,2.6-6.61-.45-9.85a38.23,38.23,0,0,1-3.81-5.25c-.7-1-2.27-2.11-1.32-3.44s2.49-.16,3.77-.16a1.38,1.38,0,0,1,.5.07c8.58,3.62,14.54.71,18.56-7.32.55-1.1,1.36-2.79,2.83-2.43s1.26,2.15,1.48,3.43a2.18,2.18,0,0,1,0,.5c-.74,8.72,3.09,13.69,11.88,14.91,1.46.2,3.89.32,4,2.31s-2.29,2.38-3.73,2.72c-8.45,2-11.64,7.2-10.1,15.66.32,1.76-.1,3.65-.18,5.48Z" transform="translate(-399 -100)"/><path d="M969,217a33.1,33.1,0,0,1-3.25,1.27c-8.75,2.45-13.68,7.39-11.61,17.19.25,1.16.54,2.93-.94,3.58s-2.18-1.08-3.13-1.9a4,4,0,0,1-.67-.75c-4.53-6.85-10.31-8.72-17.81-4.77-1.45.76-3.67,2.17-5,.36-1-1.39.56-3.26,1.55-4.45,5.45-6.51,5-12.42-1.19-18.17-1.12-1.05-2.91-2.61-2.06-4.21,1.13-2.12,3.5-.8,4.94-.23,8,3.19,13.63.79,17.47-6.8.64-1.27,1.46-3.57,3.43-2.9,1.41.48,1.2,2.58,1.38,4.05,1.44,11.71,1.43,11.71,13,14.91,1.28.35,2.6.55,3.9.82Z" transform="translate(-399 -100)"/><path d="M399,158c.48.15.95.29,1.42.46,9.18,3.17,17.2,3.13,21.59-7.53.4-1,1.26-2.31,2.61-1.81,1.18.44,1.4,2,1.3,3-.95,9.93,3.89,15,13.39,16.31,1.08.15,2.57.43,2.68,1.83s-1.33,1.87-2.38,2.11c-9.56,2.16-13.37,8-11.53,17.62.2,1.05.3,2.51-1,3.09s-2.32-.54-2.85-1.43c-5.2-8.61-12.1-10.16-20.74-5.32-.8.44-2,.82-2.81,0-1.09-1.1-.24-2.36.44-3.11,7.37-8.23,4.81-15.43-2.12-22.25Z" transform="translate(-399 -100)"/><path d="M969,503c-1,.28-1.93.5-2.86.85-11.71,4.42-11.68,4.42-12,16.74,0,1.41.7,3.36-.91,4.08s-2.38-1.35-3.5-2.2a1.65,1.65,0,0,1-.34-.36c-4.69-7.23-10.73-9.05-18.49-4.85-1.28.7-3.28,2-4.5.33-.91-1.28.74-2.7,1.36-4a1.9,1.9,0,0,1,.26-.43c5.47-6.33,5.25-12.3-.89-18.15-1.15-1.1-3.29-2.7-1.95-4.56,1-1.46,3.22-.38,4.67.18,7.71,3,13.33,1.08,17-6.52.71-1.46,1.73-3.88,3.82-3.22,1.62.51,1.29,2.86,1.47,4.48,1.45,13.15.37,9.93,11.13,13.77,1.88.67,3.79,1.25,5.68,1.88Z" transform="translate(-399 -100)"/><path d="M969,122a31.23,31.23,0,0,1-3.26,1.2c-9,2.25-13.54,7.41-11.59,17.1.23,1.16.58,2.94-.92,3.56s-2.48-.91-3.12-1.91c-5-7.73-11.47-9.67-19.71-5.16-1.1.6-2.7,1.32-3.74.26-1.18-1.21.08-2.59.83-3.49,6-7.14,5.82-13.81-1.11-20.24-.89-.82-2.25-2.07-1.48-3.41,1-1.69,2.86-.79,4-.26,9.9,4.46,15.42-.6,19.6-8.77L949,100h2a23.53,23.53,0,0,1,1,3.29c2.1,13.13,2.08,13.13,15.51,16.47.48.11,1,.16,1.47.24Z" transform="translate(-399 -100)"/><path d="M807,670a27.7,27.7,0,0,1-1.93-2.28c-5.15-7.48-11.49-10.54-20.19-5.76-1.12.61-3,1.69-4,0-.81-1.25.35-2.63,1.17-3.57,6-6.88,6-13.34-.95-19.62-1-.9-2.5-2.3-1.44-3.84.84-1.23,2.47-.34,3.76-.25a3.2,3.2,0,0,1,1,.17c7.84,3,13.68,1.18,17.31-6.77.6-1.32,1.48-3.49,3.47-3,1.74.43,1.45,2.59,1.35,3.9-.77,9.41,4.09,13.82,12.83,15.15,1.17.18,3,.42,3,2.09s-1.68,2-2.88,2.3c-9.38,2.28-12.88,8.17-11.13,17.53a14.92,14.92,0,0,1-.34,4Z" transform="translate(-399 -100)"/><path d="M617,670a21.84,21.84,0,0,1-2.37-2.55c-5.11-7.64-11.47-10.36-20-5.45-1.05.59-2.72,1.4-3.72.23-1.21-1.42.13-3,1-4,6.07-7,5.49-13.43-1.21-19.65-1-.9-2.62-2.31-1.6-3.8s2.94-.56,4.19,0c8.82,3.55,14.89.71,18.9-7.62.49-1,1.15-2.76,2.87-2.11,1.25.47,1.2,2,1.13,3.08-.6,9.1,3,14.75,12.55,15.9,1.28.15,3.4.34,3.43,2.24,0,1.47-1.76,2-2.95,2.27-9.51,2.24-12.64,8.31-11,17.52a16.21,16.21,0,0,1-.24,4Z" transform="translate(-399 -100)"/><path d="M969,598c-.79.25-1.58.52-2.37.75-8.83,2.53-15,6.92-12.49,17.55.26,1.13.61,3-1,3.52s-2.46-1-3.11-2c-5-7.89-11.5-9.54-19.7-5.23-1.12.59-2.69,1.42-3.73.32s.14-2.59.9-3.49c6-7.14,5.72-13.82-1.11-20.26-.89-.84-2.19-2.08-1.43-3.44s2.37-.51,3.63-.36a2,2,0,0,1,.48.12c8.4,3.41,14.56,1.1,18.51-7.13.54-1.11,1.35-2.78,2.8-2.49,1.82.35,1.51,2.32,1.69,3.72,1.88,14.22-1,10.51,13,15.39,1.25.44,2.57.7,3.85,1Z" transform="translate(-399 -100)"/><path d="M476,100l.15,2.49c.74,12.26.74,12.23,12.46,16.43,1.31.47,3.47.37,3.49,2.23s-2,2.16-3.34,2.5c-8.57,2.26-12.39,7.39-10.57,16.37.26,1.26.78,3.33-1.08,3.91-1.39.44-2.14-1.27-3.12-2.12a2,2,0,0,1-.34-.37c-4.69-7.26-10.78-9-18.53-4.87-1.25.67-3.11,1.67-4.19.54-1.49-1.54.66-2.91,1.1-4.39a1.14,1.14,0,0,1,.24-.43c5.5-6.43,5-12.4-1.18-18.14-1.11-1-3-2.56-2.09-4.18,1.14-2.1,3.33-.57,5-.25,11.16,2.2,11.16,2.24,17.6-7.1A28.87,28.87,0,0,0,473,100Z" transform="translate(-399 -100)"/><path d="M571,100a50.16,50.16,0,0,1,.5,6.45c-.32,7,3,10.58,9.76,11.74,2.09.36,5.6.49,5.75,2.9s-3.44,2.49-5.35,3.65a21,21,0,0,1-4.51,2.08c-3.08,1-4,3-3.85,6.08.18,2.81.06,5.64,0,8.47,0,.94.22,2.16-1,2.55s-2-.57-2.43-1.34c-5.27-8.43-12.22-10.15-20.95-5.56-.94.49-2.41,1.08-3.2-.08s.12-2.35.84-3.17c6.5-7.38,6-14.25-1.22-20.82-.8-.73-1.86-1.81-1.26-3,.8-1.64,2.31-.65,3.54-.54.49.05,1,.2,1.47.29C561.28,112,562,111.62,568,100Z" transform="translate(-399 -100)"/><path d="M712,670a20.88,20.88,0,0,1-2-2.24c-5.19-7.65-11.53-11-20.39-5.75-1,.6-2.64,1.41-3.69.2s.06-2.63.85-3.54c6.36-7.24,5.94-14-1.2-20.41-.89-.81-2.25-2-1.41-3.41s2.55-.64,3.64-.2c8.83,3.51,15.28,1.22,19.43-7.46.49-1,1.21-2.72,2.91-2.09,1.29.48,1,2,1.12,3.08a1.62,1.62,0,0,1,0,.49c-.58,8.71,2.93,14.06,12,15.18,1.44.18,3.82.36,3.84,2.43,0,1.6-2.07,2.16-3.41,2.46-9.19,2.11-12,8-10.51,16.8A19.31,19.31,0,0,1,713,670Z" transform="translate(-399 -100)"/><path d="M683.32,216.32c-2.79,2.53-6.06,3.44-9.07,4.63-4,1.57-5.57,4-5.45,8.32.09,3.29,1.9,8.24-1.47,9.54-2.53,1-5.11-3.67-7-6.2-3.55-4.64-7.42-3-11.66-1.76-2.46.72-5.83,3.21-7.36,1.3-1.93-2.4,1.34-5.19,2.88-7.22,3.67-4.84,3.44-8.92-.86-13a8.67,8.67,0,0,1-1.49-2c-.88-1.53-3.24-2.93-2.26-4.63,1.21-2.11,3.61-.27,5.49-.29a1.37,1.37,0,0,1,.49.09c7,2.9,12,1,15.39-5.91.81-1.68,2-4.41,3.93-4,2.51.48,1.61,3.58,2.06,5.56a28.37,28.37,0,0,1,.47,5c.15,3.44,1.82,5.32,5.2,6.36C676.11,213.1,680,213.59,683.32,216.32Z" transform="translate(-399 -100)"/><path d="M642.46,299.32c9.57,5.46,15.91.94,20.73-8,1.18-2.17,3.16-1.69,3,.82-.54,10.61,4.36,16.36,14.8,17.66.78.1,1.72.53,1.81,1.48s-.82,1.49-1.57,1.68c-9.9,2.44-14.53,8.3-12.43,18.73a2.25,2.25,0,0,1-1.07,2.6c-1.07.43-1.8-.56-2.53-1.22a2.32,2.32,0,0,1-.35-.35c-5.22-8.22-12.06-10-20.64-5.31-.93.51-2.33,1.1-3.23-.06s0-2.34.7-3.15c6.51-7.45,5.84-14.37-1.25-21-.76-.71-1.76-1.89-.92-3.06C639.9,299.65,641,299.69,642.46,299.32Z" transform="translate(-399 -100)"/><path d="M653.23,514.87c-2.45.8-5.93,2-9.42,3.08-.92.29-2,.86-2.82,0s-.29-2,.31-2.71c6.64-7.81,6.44-15.2-1.1-22.31a2.56,2.56,0,0,1-.56-2.27c.44-1.11,1.65-.72,2.62-.65a1.63,1.63,0,0,1,.49.09c8.94,3.72,15.59,1.53,19.69-7.52.43-.95,1.18-2.26,2.62-1.85s1.46,1.89,1.39,2.93c-.68,9.88,4,15.07,13.7,16.16,1.05.11,2.56.44,2.65,1.84s-1.41,1.92-2.43,2.15c-9.69,2.2-13.25,8.23-11.52,17.81.19,1.08.18,2.59-1,3.14-1.56.71-2.35-.86-3.2-1.75-2.07-2.17-4-4.46-6-6.68C657.45,515.1,656.19,514,653.23,514.87Z" transform="translate(-399 -100)"/><path d="M878.55,539.2c8.82,5,15,.67,19.74-8.11,1.44-2.66,3-1.35,3.39,1,.46,2.78.79,5.6,1,8.41.21,3.47,1.92,5.26,5.26,6.26s9.54,1.54,9.51,3.9c0,3.58-5.71,4-9,5.45-3.87,1.66-4.4,4.26-4.47,7.86-.06,3.36,1.83,8.36-1.24,9.66-2.78,1.17-5-3.66-6.86-6.18-3.35-4.55-7-3.71-11.35-2.16-2.68,1-6.38,3.77-8.16,1.54-1.63-2,1.63-5.36,3.27-7.67,3-4.28,3.39-8-.56-11.81a29.9,29.9,0,0,1-3.49-4.85c-.55-.81-1.32-1.67-.77-2.71S876.46,539.11,878.55,539.2Z" transform="translate(-399 -100)"/><path d="M738.13,394.79c8.9,4.88,15.46,1.13,20-8,.4-.83,1.11-1.91,2.29-1.51s.94,1.62,1.14,2.56a10.44,10.44,0,0,1,.48,2.94c-.68,8.18,3.4,12.17,11.19,13.27,1.68.24,4.4.42,4.59,2.32.25,2.45-2.67,2.68-4.38,3.15-7.31,2-10.87,6.23-9.45,14.1.32,1.82.95,4.68-1,5.51-2.36,1-3.77-1.77-4.83-3.36-4.26-6.39-9.56-7.42-16.11-3.88a13.15,13.15,0,0,1-2.84.94c-1.08.3-2.33,1-3.2-.13-.66-.91,0-2,.59-2.75,6.49-7.66,6.5-14.91-1.1-21.86-.68-.63-1.49-1.58-1-2.62S736.2,394.84,738.13,394.79Z" transform="translate(-399 -100)"/><path d="M642.13,394.86a25.72,25.72,0,0,1,4,.83c6.8,2.65,11.46.32,14.58-6a17.91,17.91,0,0,1,2-2.85c.59-.77,1.13-1.83,2.28-1.64s1.17,1.46,1.31,2.39a69.09,69.09,0,0,1,.9,7.43c.13,4.3,2.17,6.72,6.38,7.59a45.61,45.61,0,0,1,6.16,2c1.18.42,3,.44,3,2.08s-1.86,1.65-3,2.26a6.42,6.42,0,0,1-1.39.56c-7.75,1.81-11,6.51-9.5,14.45a11,11,0,0,1-.13,3.48c-.32,2.35-1.45,2.86-3.3,1.24a4.83,4.83,0,0,1-1-1.08c-4.94-8.59-11.77-9.53-20.06-5.13-1.05.56-2.6,1.53-3.59.09-.73-1.05.23-2.35.93-3.16,6.48-7.45,5.77-14.39-1.21-21.06a2.47,2.47,0,0,1-.86-2.7C640.13,394.5,641.33,395,642.13,394.86Z" transform="translate(-399 -100)"/><path d="M737.55,490.07a2,2,0,0,1,.48.11c9,3.8,15.5,1.27,19.58-7.63.45-1,1.24-2.24,2.65-1.83s1.44,1.93,1.37,2.94c-.72,9.91,4.13,15,13.67,16.22,1,.14,2.51.42,2.56,1.91,0,1.19-1.16,1.67-2.06,1.9-9.52,2.41-13.74,8.19-11.84,18.09.21,1.06.19,2.54-1.12,3.06s-2-.76-2.86-1.52a1.66,1.66,0,0,1-.32-.38c-4.85-8.56-11.58-9.87-19.95-5.31-1.08.58-2.69,1.51-3.68.27s.31-2.61,1.08-3.53c6.19-7.39,5.45-14.22-1.32-20.77-.8-.77-1.72-1.94-1-3.1C735.3,489.58,736.56,489.93,737.55,490.07Z" transform="translate(-399 -100)"/><path d="M643.62,585.37c8.53,4.9,14.63.53,19.13-8.08.43-.82,1.12-1.81,2.33-1.46a2.15,2.15,0,0,1,1.3,2.46c-.65,10.09,3.9,15.78,14,17,.89.11,2.15.62,1.88,1.88a2.66,2.66,0,0,1-1.65,1.64c-9.92,2.46-13.61,8.78-11.82,18.66a2.22,2.22,0,0,1-1.14,2.56c-1.07.39-2-.48-2.47-1.3-5.34-9-12.53-10.66-21.55-5.64-.8.44-2,.85-2.76-.11s0-1.88.47-2.76a2.06,2.06,0,0,1,.24-.44c6.53-7.31,6-14.25-1-20.92-.82-.77-1.6-2-1-3.13C640.18,584.7,641.38,585.12,643.62,585.37Z" transform="translate(-399 -100)"/><path d="M778.08,311.66c-2.45,2.23-5.62,3.38-8.67,4.45-4.09,1.43-5.62,3.86-5.49,8.2.1,3.32,1.91,8.29-1.32,9.63-2.6,1.07-5.15-3.6-7.08-6.11-3.68-4.77-7.63-3.22-12-1.76-2.36.79-5.45,3.3-7.23,1-1.39-1.76,1.17-4.69,2.7-6.48,4.95-5.8,2.72-10.42-1.62-15.17-1.32-1.44-3.84-3.36-2.43-5.37,1.09-1.54,3.73-.07,5.66.25a34.83,34.83,0,0,1,4.9,1c3.59,1.11,6.08,0,8-3.21a56.58,56.58,0,0,1,4.09-5.67c.77-1,1.33-2.78,2.9-2.25,1.4.46,1.46,2.3,1.35,3.49-.87,9.6,4,14.32,13,15.71C776,309.59,777.42,309.88,778.08,311.66Z" transform="translate(-399 -100)"/><path d="M877.72,348.59c9.39,5.51,15.78,1.33,20.51-7.8,1.06-2.05,2.7-1.69,3.35.73a4.13,4.13,0,0,1,.29,1.47c-1.17,10.05,4.29,14.44,13.39,15.84,1,.16,2.57.45,2.63,1.86s-1.43,1.89-2.46,2.12c-9.68,2.22-13.22,8.27-11.49,17.84.19,1.06.2,2.55-1.05,3.1s-1.93-.89-2.74-1.61a3.36,3.36,0,0,1-.66-.75c-4.68-7.57-10.85-9.41-18.85-5.22-1.26.66-3.32,2-4.52.2-.86-1.29.42-3,1.37-4,6.61-7.24,4.41-13.6-1.66-19.75-.77-.78-1.77-1.78-1.39-3S876.11,348.93,877.72,348.59Z" transform="translate(-399 -100)"/><path d="M878.38,158.61c8.93,5.11,15.17.83,19.8-8.14,1.26-2.43,3.48-1.92,3.32.82-.64,10.73,4.54,16.18,14.82,17.54.83.11,1.78.73,1.63,1.59a2.6,2.6,0,0,1-1.64,1.64c-10,2.33-14.43,8.31-12.38,18.66a2.09,2.09,0,0,1-1.16,2.53c-1.07.34-2-.53-2.48-1.34-5.3-8.73-12.35-10.41-21.17-5.44-.81.45-2,.91-2.8.07-1.09-1.11-.21-2.38.46-3.14,6.63-7.6,5.91-14.69-1.22-21.49-.67-.64-1.45-1.6-1-2.65S876.35,158.7,878.38,158.61Z" transform="translate(-399 -100)"/><path d="M877.66,253.48c9.59,5.41,16,.92,20.71-8.06,1.15-2.16,2.71-1.85,3.15.69a67.16,67.16,0,0,1,1.15,8.89c.15,3.83,2.2,5.42,5.62,6.5s8.91.65,9.23,4.15c.25,2.8-5.38,3.65-8.52,4.76-5,1.76-5.09,5.25-5.09,9.48,0,2.82,1.68,7-1.35,8.16-2.4.91-4.59-2.94-6-5.14-3.75-5.69-8.26-4.75-13.44-2.69-2.16.85-5.09,3.12-6.8,1-1.44-1.75,1-4.44,2.46-6C885.4,268,879.91,263,876,257.61c-.73-1-2.08-2-1.23-3.46C875,253.68,876.23,253.77,877.66,253.48Z" transform="translate(-399 -100)"/><path d="M738.82,204.67c8.23,4.6,14.68,1,19.1-8,.41-.84,1.12-1.82,2.27-1.66s1.43,1.5,1.36,2.35c-.93,10.54,4.31,15.86,14.34,17.32a2.74,2.74,0,0,1,1.89,1.36c.44,1.28-.93,1.76-1.74,1.95-9.84,2.36-14.06,8.3-12.07,18.41a2.32,2.32,0,0,1-.94,2.66c-1.39.71-2.32-.48-2.85-1.35-5.18-8.6-12.11-10.16-20.8-5.52-.89.47-2.33,1.21-3.23.07s.05-2.36.72-3.15c6.51-7.66,5.77-14.73-1.44-21.45-.68-.63-1.39-1.65-.76-2.67S736.44,204.41,738.82,204.67Z" transform="translate(-399 -100)"/><path d="M738.68,585.38c8.33,4.58,14.74,1,19.18-7.94.41-.83,1.12-1.85,2.28-1.64,1.51.29,1.53,1.85,1.47,2.83-.67,10.06,4.23,15.3,13.95,16.61.91.12,2.19.39,2.34,1.54.22,1.58-1.45,1.54-2.33,2.17a2.77,2.77,0,0,1-.91.41c-8.58,2.22-12.37,7.48-10.68,16.43.25,1.35.62,3.4-1,4.09-2,.87-3-1.22-3.77-2.47-4.59-7.52-10.57-9.27-18.39-5.09-1.35.72-3.37,2-4.61.7s.42-3.23,1.34-4.34c5.83-7,4.75-13.37-1.5-19.44-.9-.87-2-2.1-1.38-3.51C735.19,584.63,736.44,585.11,738.68,585.38Z" transform="translate(-399 -100)"/><path d="M877.58,444.08a2.5,2.5,0,0,1,.49.1c8.95,3.73,15.53,1.39,19.65-7.55.44-1,1.26-2.25,2.65-1.83s1.51,1.89,1.42,2.94c-.84,9.89,3.86,15.06,13.47,16.36,1,.13,2.58.25,2.58,1.82,0,1.16-1.23,1.61-2.12,1.84-9.56,2.42-13.65,8.3-11.79,18.14.2,1.08.1,2.59-1.2,3s-2.24-.75-2.79-1.7c-5-8.53-11.77-10.18-20.36-5.5-1.08.59-2.66,1.41-3.66.12-.79-1,.39-2.15.9-3.16a4.83,4.83,0,0,1,.52-.85c5.76-6.76,5.79-13.17-1-19.32-1-.93-2.28-2.32-1.51-3.93C875.28,443.61,876.6,444,877.58,444.08Z" transform="translate(-399 -100)"/><path d="M855.69,385c1.81,3.43,1.55,7.17,1.93,10.72s1.9,5.75,5.55,6.57a62.91,62.91,0,0,1,8.07,2.65c2.18.81,2.83,2.56.31,3.22-9.88,2.59-14.57,8.31-12.5,18.75a2,2,0,0,1-1.21,2.48c-1.07.28-1.83-.62-2.52-1.33a68.49,68.49,0,0,1-5.49-5.82c-2.18-2.84-4.54-3.19-7.85-2s-8.37,4.5-10,2.36c-2.22-2.9,2.23-6.58,4-9.77,1.7-3,2-5.5-.56-8.08a12.13,12.13,0,0,1-2-2.85c-1.19-2.26-4.83-4.23-3.4-6.54,1.2-1.93,4.8-.19,7,.59,6.6,2.35,10.76-.05,14-5.74C852.06,388.24,853,385.93,855.69,385Z" transform="translate(-399 -100)"/><path d="M855.32,289.29c2,3.68,2,7,2.13,10.25.23,4.4,2.06,6.9,6.53,8,3.1.76,8.31,1,8.52,3.76.22,2.89-4.9,3.78-7.84,4.76-5.06,1.67-5.85,4.95-5.63,9.57.13,2.83,1.62,7.15-1.12,8.26s-4.91-3-6.43-5.2c-3.75-5.52-8.08-4.33-13-2.42-2.22.86-5.36,2.91-6.91,1.17-1.83-2.05,1.06-4.65,2.44-6.34,4.57-5.64,3.54-10.34-1.12-15.24-1.46-1.53-4.3-3.53-2.91-5.71,1.09-1.71,4.11-.34,6.06.34,6.8,2.36,11.86.92,15.15-5.84C852.06,292.8,853.71,291.33,855.32,289.29Z" transform="translate(-399 -100)"/><path d="M873.44,216.43a32,32,0,0,1-9.51,4.86c-3.76,1.32-5,3.64-4.89,7.55.11,3.38,1.69,8.61-1,9.78-3.28,1.43-5.32-3.66-7.27-6.18-3.41-4.41-6.92-3.25-11-1.86-2.75.94-6.66,3.48-8.23,1.57-1.76-2.13,1.53-5.48,3.23-7.6,4.6-5.7,1.33-9.59-2-13.94-1.29-1.67-4.25-3.52-2.63-5.78,1.26-1.74,4,.09,6.13.29a18.67,18.67,0,0,1,4.4.88c3.63,1.34,6,0,7.88-3.13a18.93,18.93,0,0,1,2.68-3.6c1.43-1.46,2-4.74,4.38-4,1.66.5,1.63,3.55,1.5,5.45-.51,7.64,3,11.71,10.44,12.87A9.26,9.26,0,0,1,873.44,216.43Z" transform="translate(-399 -100)"/><path d="M497.82,539.25c8.71,4.91,15.1.75,19.76-8.07a2.64,2.64,0,0,1,1.92-1.29c1.17.09,1.31,1.35,1.45,2.31a61.41,61.41,0,0,1,1,8.41c0,3.7,2,5.15,5.21,6.2,3.39,1.12,9.26,1.26,9.45,4.05.24,3.43-5.45,3.9-8.65,5.16-4.67,1.83-4.8,5.15-4.79,9.18,0,2.88,1.54,7.27-.95,8.32-2.71,1.14-4.68-3-6.4-5.24-3.29-4.2-6.88-5.21-11.64-3a34.59,34.59,0,0,1-5.23,1.66c-1.1.32-2.39,1-3.3,0s0-2.3.66-3.1c6.33-7.45,6.06-14.42-1.23-21.08-.78-.72-1.81-1.78-1.14-3.05C494.49,538.69,495.66,539.08,497.82,539.25Z" transform="translate(-399 -100)"/><path d="M547.7,204.36c9.14,5.38,15.4.58,20.34-8.16,1.3-2.3,3.23-1.4,3,.89-1,10.81,4.32,16.07,14.54,17.66,2.47.38,2.41,2.07.18,3.19a70.59,70.59,0,0,1-7.72,3.54c-3.7,1.34-5,3.73-4.83,7.64.15,3.24,1.54,8.47-.78,9.35-3.22,1.23-5.35-3.57-7.47-6.06-3.15-3.7-6.35-3.16-10.29-1.95-2.88.88-6.68,3.83-8.68,1.45-1.72-2,1.64-5.44,3.38-7.68,3.41-4.42,2.84-8-.86-11.76a42.59,42.59,0,0,1-3.88-5.2c-.47-.66-1.15-1.35-.7-2.24C544.55,203.85,545.66,204.32,547.7,204.36Z" transform="translate(-399 -100)"/><path d="M832.72,584.84c9.67,5.75,15.84.85,20.73-7.82,1.19-2.11,2.65-1.73,3.2.74a6.52,6.52,0,0,1,.34,2c-1,9.45,3.92,13.91,12.74,15.21,1.19.18,3.06.4,3.22,1.88.21,1.94-2,1.85-3.15,2.59a2.37,2.37,0,0,1-.46.2c-8,2.16-12,6.91-10.28,15.58.3,1.49.78,3.83-.85,4.59-2.19,1-3.21-1.49-4-2.79-4.8-7.62-11-8.36-18.59-4.55-1.31.66-3.27,2.08-4.47.39-.87-1.24.64-2.86,1.53-3.94,5.52-6.68,5.55-13-.93-19a12,12,0,0,1-1.47-2c-.48-.69-1-1.61-.38-2.23S831.36,585.16,832.72,584.84Z" transform="translate(-399 -100)"/><path d="M833.62,490.12c8.62,5,15,.93,19.57-8,.44-.86,1.28-1.83,2.34-1.4a2.55,2.55,0,0,1,1.08,2.07C856.05,493,860.7,498.85,871,500.1a2.64,2.64,0,0,1,1.89,1.38c.35,1.17-.77,1.83-1.7,2-10.1,2.41-14,8.7-12.1,18.84.17.92.09,2.23-1.12,2.43a2.61,2.61,0,0,1-2.06-1.1c-5.63-8.79-12.84-10.91-22.19-5.77-2.06,1.14-3.62-.41-2-2.38,6.69-8.17,6.06-15.56-1.31-23C828.45,490.64,830.21,489.78,833.62,490.12Z" transform="translate(-399 -100)"/><path d="M497.58,253.69c9.34,5.58,15.44.27,20.21-8.44.39-.7,1.14-1.53,2-1.07a3.05,3.05,0,0,1,1.14,2,87.78,87.78,0,0,1,1.11,9.41c.14,3.21,1.73,4.56,4.66,5.5,3.57,1.13,9.68,1.14,9.92,4.21.28,3.56-5.66,4.06-9,5.43-3.92,1.59-4.36,4.31-4.41,7.92,0,3.18,1.74,8.06-1.15,9.17s-5.15-3.48-7-6c-3.22-4.42-6.8-3.43-11-2.1-2.68.85-6.22,3.73-8.15,1.31-1.49-1.86,1.72-5,3.23-7.31,2.91-4.35,3.09-8.15-.68-12a35.43,35.43,0,0,1-3.55-4.82c-.54-.79-1.53-1.58-1-2.64S495.54,253.73,497.58,253.69Z" transform="translate(-399 -100)"/><path d="M492.24,406.61a2.65,2.65,0,0,1-2.12,1.92c-9.89,2.34-13.92,8.37-11.9,18.41.18.9.29,2.21-.75,2.68-1.36.62-2.26-.64-2.8-1.52-5.41-8.73-12.53-10.18-21.32-5.31-.83.46-2,.86-2.78,0s-.17-2,.44-2.71c6.86-7.8,6.5-15.13-1.18-22.15-.67-.61-1.42-1.73-.48-2.6a2.67,2.67,0,0,1,2.32-.36c9.75,4.07,16.51.77,21.07-8.31a2.61,2.61,0,0,1,1.86-1.38c1.18.07,1.51,1.37,1.41,2.28-1.18,10.6,4.07,15.85,14.1,17.29A2.27,2.27,0,0,1,492.24,406.61Z" transform="translate(-399 -100)"/><path d="M592.9,253.83c8.68,5,15.08.68,19.79-8.16.42-.79,1.11-2,2.27-1.37.57.3.78,1.34,1.1,2.08a2.16,2.16,0,0,1,.12,1c-.66,9.36,3.15,15.07,12.93,16.07,1.23.13,3,.39,3.14,2s-1.6,2.19-2.8,2.44c-10,2.12-12.76,8.6-11.22,17.91.17,1,.51,2.57-1,3-1.05.26-1.93-.68-2.41-1.49-5.26-9-12.44-10.37-21.3-5.6-.85.46-2.09.75-2.75-.21a2.31,2.31,0,0,1,.52-2.76c7.12-7.75,5.9-14.93-1.32-21.81-.65-.63-1.49-1.45-1.09-2.61C589.06,253.62,589.6,253.56,592.9,253.83Z" transform="translate(-399 -100)"/><path d="M497.06,158.37c9.5,5.4,15.87.9,20.67-8.05,1.18-2.2,3.23-1.74,3,.66-.79,10.72,4.26,16.25,14.57,17.66a1.9,1.9,0,0,1,1.83,1.46c.18,1.29-.93,1.8-1.8,2-10,2.41-14.16,8.39-12.27,18.68.48,2.61-1.21,3.38-3.24,1.41a53.35,53.35,0,0,1-5.35-5.9c-2.33-3.08-4.92-4.13-8.58-2.32a34,34,0,0,1-6.14,2c-1.37.37-3.1,1.63-4.14.16s.32-3,1.25-4c6.62-7.29,4.33-13.67-1.71-19.83-.76-.78-1.8-1.76-1.43-3S495.46,158.8,497.06,158.37Z" transform="translate(-399 -100)"/><path d="M592.79,539.17c8.69,4.92,15.23,1.14,19.87-7.87.41-.8,1.1-1.88,2.3-1.41a2.31,2.31,0,0,1,1.15,2.57c-.82,9.92,3.51,15.54,13.54,16.67,1,.11,2.56.37,2.54,1.9s-1.45,1.89-2.47,2.13c-9.54,2.25-13.34,8.1-11.49,17.73.19,1,.5,2.59-1,3-1.3.37-2.18-.85-2.76-1.76-5.12-8.1-11.84-9.66-20.23-5.3-1.07.56-2.66,1.37-3.6-.05-.72-1.07.24-2.34.94-3.17,6.23-7.35,5.86-14.19-1.28-20.71-.79-.73-1.78-1.74-1.27-3S590.69,539.1,592.79,539.17Z" transform="translate(-399 -100)"/><path d="M497.63,443.94c8.93,5.38,15.2.94,19.89-7.81.44-.82,1.21-1.89,2.31-1.32a2.55,2.55,0,0,1,1.09,2.07c-1.08,10.55,4.06,15.91,14.16,17.31.84.12,2.11.45,2,1.79-.05,1-1,1.37-1.72,1.57-9.78,2.64-14.35,8.58-12.23,18.92a2.61,2.61,0,0,1-.7,2.21c-1,.76-2-.21-2.47-1-5.54-8.59-12.72-10.71-21.83-5.77-.84.45-2.11.75-2.7-.24-.3-.5.24-1.52.45-2.3a2.58,2.58,0,0,1,.5-.86c6.06-7.27,6.09-14.16-1.17-20.71-.8-.72-1.75-1.75-1.25-3.05S495.64,444,497.63,443.94Z" transform="translate(-399 -100)"/><path d="M453,585.29c8.33,4.48,14.87,1.13,19.34-7.84.43-.86,1.23-1.91,2.3-1.6,1.28.38,1.55,1.81,1.45,2.93-.94,9.89,3.63,15.13,13.39,16.2,1,.12,2.5.46,2.68,1.85s-1.29,2-2.28,2.24c-9.75,2.32-13.58,8.33-11.67,18.14.18.89.27,2.15-.87,2.62s-2-.49-2.46-1.25c-5.46-8.3-12.35-10.83-21.35-5.56-.8.47-2,.81-2.81,0s-.14-2,.44-2.7c6.47-7.76,6.43-15.06-1.29-22-.7-.63-1.42-1.66-.82-2.67S450.81,585,453,585.29Z" transform="translate(-399 -100)"/><path d="M496.26,348.81a2.61,2.61,0,0,1,.5.09c9.21,3.85,16.18,1.75,20.49-7.65.38-.84,1.18-1.87,2.28-1.64,1.41.28,1.59,1.75,1.49,2.81-.94,9.86,3.63,15.12,13.29,16.37,1.08.14,2.57.51,2.73,1.79s-1.31,1.93-2.35,2.2c-9.56,2.5-13.51,8.43-11.5,18.23.18.89.26,2.18-.79,2.67-1.38.64-2.27-.61-2.81-1.49-5.34-8.78-12.44-10.29-21.25-5.43-.84.47-2,.87-2.8,0s0-1.83.4-2.71a3.22,3.22,0,0,1,.5-.86c6.29-7.32,5.72-14.17-1.32-20.67-.8-.74-1.79-1.75-1.42-3S495.34,348.87,496.26,348.81Z" transform="translate(-399 -100)"/><path d="M686.17,158.46c2.6.5,5,.65,7.16,1.44,5,1.82,8.11.16,10.71-4.23,1.47-2.48,3.24-6.8,5.65-6.32,3.18.64,2.12,5.35,2,7.88-.44,7.52,4.75,8.46,9.87,10.09,2.08.67,5.54.48,5.66,3.11.09,2.17-3.26,2.32-5.11,3.32a12.5,12.5,0,0,1-2.72,1.23c-5.15,1.29-6.58,4.6-6.17,9.66.22,2.76,1.76,7-1.13,8.15-2.19.86-4.48-3-6-5.21-3.76-5.33-8.14-4.44-13.15-2.43-2.17.87-5.11,3.08-6.86,1-1.59-1.87,1-4.35,2.38-6,4.47-5.48,4.14-10.34-.94-15.13a22.42,22.42,0,0,1-2.69-3.59c-.54-.78-1.53-1.66-.63-2.58C684.6,158.4,685.67,158.55,686.17,158.46Z" transform="translate(-399 -100)"/><path d="M548,490c8.75,5.18,15.08,1.08,19.65-7.86.41-.81,1.18-1.77,2.36-1.31a2.26,2.26,0,0,1,1.22,2.53c-1,10.11,3.86,15.27,13.65,16.46,1,.13,2.47.55,2.5,2s-1.36,2-2.4,2.2c-10,2.15-13.41,8.37-11.65,18.06.16.9.26,2.16-.8,2.66s-1.8-.54-2.49-1.19a14.65,14.65,0,0,1-2.74-2.89c-3.76-6.36-8.75-7-15.1-4-1.89.92-4.88,2.91-6.36,1s1.15-4.33,2.5-6c4.39-5.45,4.16-10.32-.83-15.15a18.25,18.25,0,0,1-2.65-3.61,3.17,3.17,0,0,1-.61-2.25C544.65,489.46,545.88,489.93,548,490Z" transform="translate(-399 -100)"/><path d="M727.32,551.31a4.46,4.46,0,0,1-3.16,2.16c-9.15,2.22-12.67,7.9-10.89,17.08.21,1.06.45,2.64-.69,3.2-1.54.77-2.51-.8-3.14-1.79-5.05-7.89-11.63-9.41-19.83-5.2-1.11.57-2.7,1.4-3.72.24s.11-2.69.9-3.55c6.67-7.3,5.64-14-1.28-20.4-.91-.84-2.21-2.1-1.26-3.44s2.56-.65,3.72-.17c8.61,3.55,14.91,1.26,19-7.15.54-1.1,1.37-2.77,2.84-2.41,1.84.46,1.23,2.45,1.5,3.84a2.13,2.13,0,0,1,0,.5c-.51,8.36,2.93,13.26,11.66,14.4C726.79,549.1,727.48,550.19,727.32,551.31Z" transform="translate(-399 -100)"/><path d="M451.16,299.63A65.49,65.49,0,0,1,459,301.1c4.15,1.28,6.88,0,9.28-3.53,1.81-2.68,3.66-7.64,6.22-7,3.29.78,2,5.88,2,8.91,0,6.39,4.35,7.31,8.87,8.78,2.37.77,6.37.56,6.5,3.39.1,2.31-3.79,2.85-6,3.57-6,1.89-8.84,5.4-7.65,11.82a19.83,19.83,0,0,1,0,4.49c0,1,.2,2.17-.88,2.65-1.38.61-2.11-.63-2.88-1.43a55.92,55.92,0,0,1-4.71-5.16c-2.52-3.36-5.41-3.59-9.22-2.28-3.15,1.08-7.33,4.37-9.54,1.73-1.82-2.18,2-5.89,3.81-8.54,2.46-3.61,2.54-6.48-.53-9.68a54,54,0,0,1-4.78-6.39C448,300.27,448.64,299.36,451.16,299.63Z" transform="translate(-399 -100)"/><path d="M683,253.86c4.51-.57,7.89.56,11.17,1.44,4.22,1.14,6.86-.1,9.3-3.59,1.81-2.6,3.29-7.4,6.41-6.69,2.8.64,2.07,5.69,2,8.55-.12,5.92,3.59,7,7.89,8.46,2.67.89,7.23.33,7.39,3.62.12,2.48-4.28,3.36-6.82,4.08-5.94,1.69-7.93,5.31-7.05,11.1a20.45,20.45,0,0,1,0,4c-.07,1.29.54,3.12-.72,3.7-1.71.8-2.41-1.25-3.46-2.19a3.64,3.64,0,0,1-.64-.77c-4.33-6.66-9.78-9-17.22-4.81-1.47.82-3.81,2.18-5.09.78-1.65-1.83.51-3.86,1.62-5.16,5.34-6.26,4.49-11.82-1.11-17.3C685.42,257.83,684.58,256.14,683,253.86Z" transform="translate(-399 -100)"/><path d="M783.9,539.36c8.6,5.16,14.51.24,19.12-8.15a2.7,2.7,0,0,1,1.93-1.3c1.27,0,1.25,1.32,1.45,2.26a8.16,8.16,0,0,1,.37,2.46c-1,8.73,3.53,12.7,11.56,14,1.49.24,3.83.41,3.93,2.38s-2.36,2-3.66,2.85a1.35,1.35,0,0,1-.45.22c-8.24,1.93-11.3,7.1-9.84,15.34.26,1.43.92,3.73-1,4.38-1.5.49-2.68-1.33-3.39-2.51-4.64-7.7-10.81-8.65-18.41-4.66-1.33.7-3.38,1.82-4.57.22-1-1.32.5-2.91,1.41-4,5.92-6.86,5.49-13.17-1.18-19.26-1-.93-2.29-2.31-1.35-3.93C780.3,538.76,781.56,539.07,783.9,539.36Z" transform="translate(-399 -100)"/><path d="M548.13,585.27c8.65,5.09,14.93.69,19.61-8.07.42-.78,1.19-1.91,2.33-1.2a2.64,2.64,0,0,1,1.06,2.07c-1.06,10.55,4,15.91,14.18,17.19.89.11,2.16.6,1.9,1.86a2.62,2.62,0,0,1-1.64,1.64c-10.21,2.54-14.31,8.82-12.38,19.25.42,2.23-1.24,2.53-2.75,1a94.06,94.06,0,0,1-6.86-7.26c-1.75-2.14-3.56-2.68-6.09-1.63a41.15,41.15,0,0,1-6.17,2c-1.85.43-4.14,2.48-5.49.63-1.19-1.64.79-3.87,2-5.27,5.14-6,4.66-11.5-1.07-16.77a13.43,13.43,0,0,1-1.8-2.4c-.56-.81-1.38-1.68-.82-2.69S545.86,585,548.13,585.27Z" transform="translate(-399 -100)"/><path d="M452.85,490.1c8.4,4.65,14.92,1.32,19.43-7.64.46-.91,1.19-2.26,2.64-1.66,1,.42,1.07,1.61,1.19,2.59a82.59,82.59,0,0,1,.95,8.41c.06,3.26,1.69,4.84,4.64,5.5a8.24,8.24,0,0,1,1.9.6c2.86,1.41,8,.6,8.29,4,.22,2.93-4.76,3.6-7.59,4.42-5.88,1.72-6.4,5.71-6.12,10.75.15,2.54,1.37,6.42-.85,7.4-2.45,1.07-4.36-2.55-5.73-4.54-3.81-5.55-8.34-6.3-14.05-3.43a28.75,28.75,0,0,1-4.72,1.58c-.8.24-1.87.51-2.27-.29a3,3,0,0,1,.36-2.29c1.5-2.78,3-5.58,4.72-8.21,1.59-2.43,1.63-4.44-.34-6.72s-3.57-4.8-5.29-7.25c-.56-.79-1.45-1.63-.94-2.67S450.78,490,452.85,490.1Z" transform="translate(-399 -100)"/><path d="M590.21,472.07c1-3.91,3.09-6.91,5-9.9s2-5.67-.51-8.45a75.39,75.39,0,0,1-4.8-6.38c-.57-.79-1.41-1.63-.85-2.68a2,2,0,0,1,2.66-.64c9.5,3.94,16.43,1.35,20.91-7.93.38-.8,1.2-1.9,2.33-1.22a2.65,2.65,0,0,1,1,2.08c-1,10.53,4.19,15.84,14.23,17.28.84.13,2.2.53,1.87,1.84a2.68,2.68,0,0,1-1.7,1.58c-10,2.48-14.27,8.54-12.22,18.82a2.63,2.63,0,0,1-.67,2.22c-1,.72-2-.24-2.46-1-5.65-9.69-13.51-10.06-22.62-5.54C592,472.38,591.23,472.11,590.21,472.07Z" transform="translate(-399 -100)"/><path d="M793.3,278.61c-2.44.78-5.76,1.86-9.09,2.88-1.06.33-2.33,1.11-3.2-.1-.64-.89,0-2,.58-2.76,6.53-7.53,6.17-14.61-1.14-21.41-.76-.72-1.8-1.93-.88-3.05.8-1,2.3-.66,3.3-.24,9.17,3.92,15.5.93,19.69-7.76.47-1,1.19-2.26,2.58-2s1.44,1.9,1.34,2.9c-1,10.17,3.92,15.28,13.71,16.47,1.09.13,2.56.47,2.7,1.82s-1.31,1.71-2.32,2.22a6,6,0,0,1-1.38.58c-8.58,2-12.66,6.91-10.87,16,.25,1.27.77,3.33-1.1,3.89-1.37.41-2.21-1.21-3.12-2.12-1.87-1.89-3.68-3.85-5.51-5.78A4.86,4.86,0,0,0,793.3,278.61Z" transform="translate(-399 -100)"/><path d="M452.86,204.49c8.55,4.67,15.13.95,19.78-8a2.74,2.74,0,0,1,1.86-1.4c1.21,0,1.57,1.32,1.49,2.22-1,10.42,3.79,16.07,14.1,17.27,1,.11,2.17.56,2.08,1.74-.05.6-1,1.14-1.64,1.66a2.19,2.19,0,0,1-.89.44c-9.43,2.31-13.33,8.14-11.42,17.76.18.92.25,2.19-.71,2.74-1.37.79-2.28-.47-2.84-1.34-5.3-8.32-12.26-9.7-20.79-5.3-.95.49-2.43,1.07-3.22-.11s.08-2.36.81-3.2c6.52-7.43,5.85-14.32-1.31-20.9-.78-.71-1.83-1.73-1.23-3S450.63,204.29,452.86,204.49Z" transform="translate(-399 -100)"/><path d="M781.38,158.57a8.69,8.69,0,0,1,1.89.27c9,3.85,15.17.81,19.25-7.69.47-1,1.19-2.28,2.56-2s1.4,1.86,1.31,2.89c-.88,10.18,4.25,15.18,13.89,16.49,1.08.14,2.56.45,2.53,1.93,0,1.09-1.25,1.58-2.17,1.81-9.59,2.37-14.44,7.87-12.31,18.18.18.88.25,2.17-1,2.56s-1.94-.57-2.44-1.35c-5.3-8.11-12.07-10.07-20.67-5.27-.92.51-2.31,1.13-3.23,0s0-2.34.67-3.15c6.46-7.41,6-14.35-1.13-21-.78-.73-1.83-1.82-1-3C779.87,158.67,781,158.69,781.38,158.57Z" transform="translate(-399 -100)"/><path d="M783.06,443.8c9.08,5.22,15.17,1.17,19.59-7.39.43-.84,1.15-1.83,2.27-1.65,1.52.24,1.6,1.75,1.5,2.78-1.06,10.61,4.71,15.25,14.3,16.75.83.13,2.26.34,2,1.68a2.64,2.64,0,0,1-1.71,1.57c-9.93,2.57-14.89,8.38-12.69,19a1.76,1.76,0,0,1-.8,2.15,1.72,1.72,0,0,1-2.11-.93c-5.45-9.27-12.84-10.81-22-5.74a2.62,2.62,0,0,1-2.32,0c-1.06-.77-.36-1.94.22-2.63,6.63-7.75,6.8-15.1-1.08-22.15-.7-.62-1.25-1.91-.42-2.67C780.4,444,781.6,444.1,783.06,443.8Z" transform="translate(-399 -100)"/><path d="M592.71,158.59c9.07,5.18,15.42.46,20.2-8.33.38-.7,1-1.47,2-1.25s1.07,1.17,1.2,2a3.64,3.64,0,0,1,.11,1c-.84,9.46,3.23,14.94,12.83,16.16,1.19.15,3,.4,3.19,1.94.25,2-1.84,2-3,2.74a3.09,3.09,0,0,1-.92.38c-8,1.89-11.58,6.7-10,15.06.27,1.49.83,3.86-.78,4.58-2.05.93-2.83-1.71-4.21-2.73a4.41,4.41,0,0,1-1-1.07c-3.82-5.76-8.72-7.12-14.89-3.83a17.86,17.86,0,0,1-3.79,1.22c-.93.26-2,.82-2.76-.16a2.23,2.23,0,0,1,.5-2.74c7.15-7.95,5.84-15.24-1.56-22.16-.56-.52-1.26-1.3-.82-2.18C589.47,158,590.62,158.7,592.71,158.59Z" transform="translate(-399 -100)"/><path d="M587.49,406.68a5,5,0,0,1-.9,1.15,4.71,4.71,0,0,1-1.75.93c-9.55,2.16-13.43,8-11.57,17.64.19,1,.35,2.54-1.16,2.93a2.43,2.43,0,0,1-2.49-1.36c-5.36-9.23-12.76-9.59-21.38-5.11-.85.44-2.1.78-2.66-.29a2.6,2.6,0,0,1,.47-2.28c6.45-7.74,7.07-15.14-1-22.23-.71-.61-1.41-1.73-.78-2.67s1.81-.59,2.8-.47a4.06,4.06,0,0,1,1,.2c8.38,3.34,14.76,1.43,18.78-7,.53-1.12,1.39-2.74,2.86-2.43,1.84.38,1.43,2.34,1.66,3.76a2.74,2.74,0,0,1,0,.5c-.46,7.94,2.7,12.9,11,14C584.21,404.17,586.42,404.51,587.49,406.68Z" transform="translate(-399 -100)"/><path d="M590.07,377.28c1.13-4.31,3.31-7.45,5.34-10.57s1.64-5.32-.52-8c-2.32-2.91-4.92-5.72-6.52-9.62,4-.67,7.33.58,10.59,1.43,4.07,1.08,6.8.31,9.23-3.38,1.8-2.74,3.39-7.76,6.65-7,2.79.69,2,6,1.95,9.08-.16,6.5,4.56,6.74,8.63,8.3,2.36.91,6.36.48,6.58,3.26.19,2.35-3.68,3-5.89,3.68-6.5,2-9,6.05-7.86,12.67a21.63,21.63,0,0,1,0,4.48c-.1,2.59-1.19,3-3,1.2a41.54,41.54,0,0,1-4.69-5.16c-2.79-4-6.05-5.12-10.67-3.06A26.69,26.69,0,0,1,590.07,377.28Z" transform="translate(-399 -100)"/><path d="M548,299.68c8.73,4.87,15.19.86,19.79-8.1a2.72,2.72,0,0,1,1.88-1.39c1.19,0,1.57,1.29,1.48,2.24-.91,10.44,4.07,16,14.2,17.38a2.67,2.67,0,0,1,1.86,1.43c.36,1.19-.84,1.83-1.71,2-10.11,2.38-14,8.57-12.3,18.82.46,2.74-1.8,2.74-3,1-5.59-8.44-12.64-10.36-21.55-5.46a2.08,2.08,0,0,1-2.76-.22c-.71-.91-.09-1.89.36-2.77a1.67,1.67,0,0,1,.25-.43c6.94-7.6,5.8-14.63-1.45-21.29-.66-.61-1.57-1.54-1-2.6S545.82,299.69,548,299.68Z" transform="translate(-399 -100)"/><path d="M688,444.05c8.77,5,15.16.82,19.84-8a2.58,2.58,0,0,1,1.94-1.26c1.18.1,1.27,1.34,1.4,2.33a25.42,25.42,0,0,1,.54,4.95c-.49,6.58,3,9.43,9,10.66,2.29.47,6.07.6,6.29,3,.25,2.7-3.54,3.11-5.73,3.77-6.43,2-9.29,5.8-8,12.53a14,14,0,0,1,0,3.49c-.07,1.11.44,2.64-.78,3.16-1.54.65-2.29-1-3.16-1.88a58.84,58.84,0,0,1-4.65-5.21c-2.23-2.89-4.69-3.49-8.26-2.28s-8,4.63-10.4,2c-1.66-1.81,2.43-6.31,4.39-9.29,2.1-3.19,1.95-5.65-.58-8.4a68.49,68.49,0,0,1-4.79-6.38c-.57-.79-1.42-1.66-.85-2.68S686,443.93,688,444.05Z" transform="translate(-399 -100)"/><path d="M783.55,349.07c8.61,4.95,14.76.63,19.29-8,.43-.82,1.19-1.78,2.39-1.31a2.28,2.28,0,0,1,1.17,2.54c-.9,10.42,4.35,15.49,14.24,16.68.9.11,2.14.49,2.2,1.67s-1.16,1.48-2,2a3.71,3.71,0,0,1-.9.43c-9.45,2.21-13.55,7.88-11.6,17.63.2,1,.49,2.58-1,3-1.3.38-1.94-1-2.75-1.78a1.47,1.47,0,0,1-.32-.38c-4.71-7.93-11.09-9.55-19.2-5.25-1.17.62-3,1.71-4.08.12-.81-1.17.28-2.67,1.09-3.62,6-7,5.7-13.43-1.11-19.67-.91-.84-2-2.12-1.32-3.52C780.15,348.54,781.4,348.9,783.55,349.07Z" transform="translate(-399 -100)"/><path d="M685,377.86A36.57,36.57,0,0,1,690.37,367c2-3.13,2-5.68-.52-8.49a69.48,69.48,0,0,1-5-6.84c-1.5-2.14-.77-3.16,1.69-2.79a73.28,73.28,0,0,1,8.31,1.7c3.47,1,6,.31,8-3a53.58,53.58,0,0,1,5.08-6.79c1.57-1.9,2.83-1.59,3.26.89a19.46,19.46,0,0,1,.54,4.95c-.64,7.17,3.43,9.93,9.7,11.12,2.15.41,5.63.48,5.79,2.91s-3.37,2.92-5.42,3.54c-6.82,2-9.64,6.18-8.53,13.3.31,2,1.16,5.14-.79,6-2.12.92-3.34-2.11-4.7-3.65-6.4-7.23-6.36-7.25-15.55-4.24C690.17,376.26,688.14,376.87,685,377.86Z" transform="translate(-399 -100)"/></svg>